solid CATIA STL
  facet normal -9.995533e-01  2.988726e-02  0.000000e+00
    outer loop
      vertex  3.393926e+00  2.249685e+01  3.500000e+00
      vertex  3.400000e+00  2.270000e+01  3.500000e+00
      vertex  3.393926e+00  2.249685e+01  7.500000e-01
    endloop
  endfacet
  facet normal -9.995533e-01  2.988726e-02  0.000000e+00
    outer loop
      vertex  3.393926e+00  2.249685e+01  7.500000e-01
      vertex  3.400000e+00  2.270000e+01  3.500000e+00
      vertex  3.400000e+00  2.270000e+01  7.500000e-01
    endloop
  endfacet
  facet normal  5.877853e-01 -8.090169e-01  0.000000e+00
    outer loop
      vertex -1.050658e+00  2.593359e+01  7.500000e-01
      vertex -2.750658e+00  2.469847e+01  3.500000e+00
      vertex -2.750658e+00  2.469847e+01  7.500000e-01
    endloop
  endfacet
  facet normal  9.510565e-01 -3.090172e-01  0.000000e+00
    outer loop
      vertex -2.750658e+00  2.469847e+01  7.500000e-01
      vertex -2.750658e+00  2.469847e+01  3.500000e+00
      vertex -3.400000e+00  2.270000e+01  3.500000e+00
    endloop
  endfacet
  facet normal  9.510565e-01 -3.090172e-01  0.000000e+00
    outer loop
      vertex -2.750658e+00  2.469847e+01  7.500000e-01
      vertex -3.400000e+00  2.270000e+01  3.500000e+00
      vertex -3.400000e+00  2.270000e+01  7.500000e-01
    endloop
  endfacet
  facet normal  5.877853e-01 -8.090169e-01  0.000000e+00
    outer loop
      vertex -2.750658e+00  2.469847e+01  3.500000e+00
      vertex -1.050658e+00  2.593359e+01  7.500000e-01
      vertex -1.050658e+00  2.593359e+01  3.500000e+00
    endloop
  endfacet
  facet normal  0.000000e+00 -1.000000e+00  0.000000e+00
    outer loop
      vertex -1.050658e+00  2.593359e+01  3.500000e+00
      vertex -1.050658e+00  2.593359e+01  7.500000e-01
      vertex  1.050658e+00  2.593359e+01  7.500000e-01
    endloop
  endfacet
  facet normal  0.000000e+00 -1.000000e+00  0.000000e+00
    outer loop
      vertex -1.050658e+00  2.593359e+01  3.500000e+00
      vertex  1.050658e+00  2.593359e+01  7.500000e-01
      vertex  1.050658e+00  2.593359e+01  3.500000e+00
    endloop
  endfacet
  facet normal -5.877853e-01 -8.090169e-01  -0.000000e+00
    outer loop
      vertex  1.050658e+00  2.593359e+01  3.500000e+00
      vertex  1.050658e+00  2.593359e+01  7.500000e-01
      vertex  2.750658e+00  2.469847e+01  7.500000e-01
    endloop
  endfacet
  facet normal -5.877853e-01 -8.090169e-01  0.000000e+00
    outer loop
      vertex  1.050658e+00  2.593359e+01  3.500000e+00
      vertex  2.750658e+00  2.469847e+01  7.500000e-01
      vertex  2.750658e+00  2.469847e+01  3.500000e+00
    endloop
  endfacet
  facet normal -9.510565e-01 -3.090172e-01  -0.000000e+00
    outer loop
      vertex  2.750658e+00  2.469847e+01  3.500000e+00
      vertex  2.750658e+00  2.469847e+01  7.500000e-01
      vertex  3.400000e+00  2.270000e+01  7.500000e-01
    endloop
  endfacet
  facet normal -9.510565e-01 -3.090172e-01  0.000000e+00
    outer loop
      vertex  2.750658e+00  2.469847e+01  3.500000e+00
      vertex  3.400000e+00  2.270000e+01  7.500000e-01
      vertex  3.400000e+00  2.270000e+01  3.500000e+00
    endloop
  endfacet
  facet normal  9.995533e-01  2.988726e-02  0.000000e+00
    outer loop
      vertex -3.400000e+00  2.270000e+01  3.500000e+00
      vertex -3.393926e+00  2.249685e+01  3.500000e+00
      vertex -3.400000e+00  2.270000e+01  7.500000e-01
    endloop
  endfacet
  facet normal  9.995533e-01  2.988726e-02  0.000000e+00
    outer loop
      vertex -3.400000e+00  2.270000e+01  7.500000e-01
      vertex -3.393926e+00  2.249685e+01  3.500000e+00
      vertex -3.393926e+00  2.249685e+01  7.500000e-01
    endloop
  endfacet
  facet normal  0.000000e+00  0.000000e+00  1.000000e+00
    outer loop
      vertex -2.445623e+00  6.653616e+00  7.500000e-01
      vertex -2.677218e+00  2.060417e+01  7.500000e-01
      vertex -3.393926e+00  2.249685e+01  7.500000e-01
    endloop
  endfacet
  facet normal  0.000000e+00  0.000000e+00  1.000000e+00
    outer loop
      vertex -2.445623e+00  6.653616e+00  7.500000e-01
      vertex -1.011920e+00  1.945408e+01  7.500000e-01
      vertex -2.677218e+00  2.060417e+01  7.500000e-01
    endloop
  endfacet
  facet normal  -0.000000e+00  0.000000e+00  1.000000e+00
    outer loop
      vertex  1.679860e+00  5.016585e+00  7.500000e-01
      vertex -1.679860e+00  5.016585e+00  7.500000e-01
      vertex  5.417704e-16  4.350000e+00  7.500000e-01
    endloop
  endfacet
  facet normal  0.000000e+00  0.000000e+00  1.000000e+00
    outer loop
      vertex  2.445623e+00  6.653616e+00  7.500000e-01
      vertex  3.393926e+00  2.249685e+01  7.500000e-01
      vertex  2.677218e+00  2.060417e+01  7.500000e-01
    endloop
  endfacet
  facet normal  0.000000e+00  0.000000e+00  1.000000e+00
    outer loop
      vertex  2.445623e+00  6.653616e+00  7.500000e-01
      vertex  2.677218e+00  2.060417e+01  7.500000e-01
      vertex  1.011920e+00  1.945408e+01  7.500000e-01
    endloop
  endfacet
  facet normal  0.000000e+00  0.000000e+00  1.000000e+00
    outer loop
      vertex  2.445623e+00  6.653616e+00  7.500000e-01
      vertex  1.011920e+00  1.945408e+01  7.500000e-01
      vertex -1.011920e+00  1.945408e+01  7.500000e-01
    endloop
  endfacet
  facet normal  0.000000e+00  0.000000e+00  1.000000e+00
    outer loop
      vertex  2.445623e+00  6.653616e+00  7.500000e-01
      vertex -1.011920e+00  1.945408e+01  7.500000e-01
      vertex -2.445623e+00  6.653616e+00  7.500000e-01
    endloop
  endfacet
  facet normal  -0.000000e+00  0.000000e+00  1.000000e+00
    outer loop
      vertex  2.445623e+00  6.653616e+00  7.500000e-01
      vertex -2.445623e+00  6.653616e+00  7.500000e-01
      vertex -1.679860e+00  5.016585e+00  7.500000e-01
    endloop
  endfacet
  facet normal  0.000000e+00  0.000000e+00  1.000000e+00
    outer loop
      vertex  2.445623e+00  6.653616e+00  7.500000e-01
      vertex -1.679860e+00  5.016585e+00  7.500000e-01
      vertex  1.679860e+00  5.016585e+00  7.500000e-01
    endloop
  endfacet
  facet normal -9.982135e-01  5.974844e-02  0.000000e+00
    outer loop
      vertex  3.393926e+00  2.249685e+01  7.500000e-01
      vertex  2.445623e+00  6.653616e+00  7.500000e-01
      vertex  3.393926e+00  2.249685e+01  3.500000e+00
    endloop
  endfacet
  facet normal -9.982135e-01  5.974844e-02  0.000000e+00
    outer loop
      vertex  3.393926e+00  2.249685e+01  3.500000e+00
      vertex  2.445623e+00  6.653616e+00  7.500000e-01
      vertex  2.445623e+00  6.653616e+00  3.500000e+00
    endloop
  endfacet
  facet normal  9.982135e-01  5.974844e-02  0.000000e+00
    outer loop
      vertex -3.393926e+00  2.249685e+01  7.500000e-01
      vertex -3.393926e+00  2.249685e+01  3.500000e+00
      vertex -2.445623e+00  6.653616e+00  7.500000e-01
    endloop
  endfacet
  facet normal  9.982135e-01  5.974844e-02  -0.000000e+00
    outer loop
      vertex -2.445623e+00  6.653616e+00  7.500000e-01
      vertex -3.393926e+00  2.249685e+01  3.500000e+00
      vertex -2.445623e+00  6.653616e+00  3.500000e+00
    endloop
  endfacet
  facet normal -9.342242e-01  3.537652e-01 -4.555555e-02
    outer loop
      vertex  2.677218e+00  2.060417e+01  7.500000e-01
      vertex  3.393926e+00  2.249685e+01  7.500000e-01
      vertex  2.750658e+00  2.070153e+01  0.000000e+00
    endloop
  endfacet
  facet normal -7.859479e-01  2.350033e-02  6.178460e-01
    outer loop
      vertex  2.750658e+00  2.070153e+01  0.000000e+00
      vertex  3.393926e+00  2.249685e+01  7.500000e-01
      vertex  3.400000e+00  2.270000e+01  7.500000e-01
    endloop
  endfacet
  facet normal -9.510566e-01  3.090170e-01  0.000000e+00
    outer loop
      vertex  2.750658e+00  2.070153e+01  0.000000e+00
      vertex  3.400000e+00  2.270000e+01  7.500000e-01
      vertex  3.400000e+00  2.270000e+01  0.000000e+00
    endloop
  endfacet
  facet normal  9.995533e-01  2.988726e-02  0.000000e+00
    outer loop
      vertex -3.400000e+00  2.270000e+01  7.500000e-01
      vertex -3.393926e+00  2.249685e+01  7.500000e-01
      vertex -3.400000e+00  2.270000e+01  0.000000e+00
    endloop
  endfacet
  facet normal  9.315666e-01  3.527589e-01  8.800405e-02
    outer loop
      vertex -3.400000e+00  2.270000e+01  0.000000e+00
      vertex -3.393926e+00  2.249685e+01  7.500000e-01
      vertex -2.677218e+00  2.060417e+01  7.500000e-01
    endloop
  endfacet
  facet normal  9.497229e-01  3.085836e-01 -5.293844e-02
    outer loop
      vertex -3.400000e+00  2.270000e+01  0.000000e+00
      vertex -2.677218e+00  2.060417e+01  7.500000e-01
      vertex -2.750658e+00  2.070153e+01  0.000000e+00
    endloop
  endfacet
  facet normal  5.675301e-01  8.217652e-01  5.110414e-02
    outer loop
      vertex -2.750658e+00  2.070153e+01  0.000000e+00
      vertex -2.677218e+00  2.060417e+01  7.500000e-01
      vertex -1.011920e+00  1.945408e+01  7.500000e-01
    endloop
  endfacet
  facet normal  5.876998e-01  8.088992e-01 -1.705533e-02
    outer loop
      vertex -2.750658e+00  2.070153e+01  0.000000e+00
      vertex -1.011920e+00  1.945408e+01  7.500000e-01
      vertex -1.050658e+00  1.946641e+01  0.000000e+00
    endloop
  endfacet
  facet normal  0.000000e+00  9.998649e-01  1.643912e-02
    outer loop
      vertex -1.050658e+00  1.946641e+01  0.000000e+00
      vertex -1.011920e+00  1.945408e+01  7.500000e-01
      vertex  1.011920e+00  1.945408e+01  7.500000e-01
    endloop
  endfacet
  facet normal  0.000000e+00  9.998648e-01  1.643912e-02
    outer loop
      vertex -1.050658e+00  1.946641e+01  0.000000e+00
      vertex  1.011920e+00  1.945408e+01  7.500000e-01
      vertex  1.050658e+00  1.946641e+01  0.000000e+00
    endloop
  endfacet
  facet normal -5.682015e-01  8.227374e-01 -1.582073e-02
    outer loop
      vertex  1.050658e+00  1.946641e+01  0.000000e+00
      vertex  1.011920e+00  1.945408e+01  7.500000e-01
      vertex  2.677218e+00  2.060417e+01  7.500000e-01
    endloop
  endfacet
  facet normal -5.871243e-01  8.081071e-01  4.741246e-02
    outer loop
      vertex  1.050658e+00  1.946641e+01  0.000000e+00
      vertex  2.677218e+00  2.060417e+01  7.500000e-01
      vertex  2.750658e+00  2.070153e+01  0.000000e+00
    endloop
  endfacet
  facet normal  5.877854e-01 -8.090169e-01  0.000000e+00
    outer loop
      vertex -1.050658e+00  2.593359e+01  0.000000e+00
      vertex -2.750658e+00  2.469847e+01  7.500000e-01
      vertex -2.750658e+00  2.469847e+01  0.000000e+00
    endloop
  endfacet
  facet normal  9.510564e-01 -3.090172e-01  0.000000e+00
    outer loop
      vertex -2.750658e+00  2.469847e+01  0.000000e+00
      vertex -2.750658e+00  2.469847e+01  7.500000e-01
      vertex -3.400000e+00  2.270000e+01  7.500000e-01
    endloop
  endfacet
  facet normal  9.510564e-01 -3.090172e-01  0.000000e+00
    outer loop
      vertex -2.750658e+00  2.469847e+01  0.000000e+00
      vertex -3.400000e+00  2.270000e+01  7.500000e-01
      vertex -3.400000e+00  2.270000e+01  0.000000e+00
    endloop
  endfacet
  facet normal  5.877854e-01 -8.090169e-01  0.000000e+00
    outer loop
      vertex -2.750658e+00  2.469847e+01  7.500000e-01
      vertex -1.050658e+00  2.593359e+01  0.000000e+00
      vertex -1.050658e+00  2.593359e+01  7.500000e-01
    endloop
  endfacet
  facet normal  0.000000e+00 -1.000000e+00  0.000000e+00
    outer loop
      vertex -1.050658e+00  2.593359e+01  7.500000e-01
      vertex -1.050658e+00  2.593359e+01  0.000000e+00
      vertex  1.050658e+00  2.593359e+01  0.000000e+00
    endloop
  endfacet
  facet normal  0.000000e+00 -1.000000e+00  0.000000e+00
    outer loop
      vertex -1.050658e+00  2.593359e+01  7.500000e-01
      vertex  1.050658e+00  2.593359e+01  0.000000e+00
      vertex  1.050658e+00  2.593359e+01  7.500000e-01
    endloop
  endfacet
  facet normal -5.877854e-01 -8.090169e-01  -0.000000e+00
    outer loop
      vertex  1.050658e+00  2.593359e+01  7.500000e-01
      vertex  1.050658e+00  2.593359e+01  0.000000e+00
      vertex  2.750658e+00  2.469847e+01  0.000000e+00
    endloop
  endfacet
  facet normal -5.877854e-01 -8.090169e-01  0.000000e+00
    outer loop
      vertex  1.050658e+00  2.593359e+01  7.500000e-01
      vertex  2.750658e+00  2.469847e+01  0.000000e+00
      vertex  2.750658e+00  2.469847e+01  7.500000e-01
    endloop
  endfacet
  facet normal -9.510564e-01 -3.090172e-01  -0.000000e+00
    outer loop
      vertex  2.750658e+00  2.469847e+01  7.500000e-01
      vertex  2.750658e+00  2.469847e+01  0.000000e+00
      vertex  3.400000e+00  2.270000e+01  0.000000e+00
    endloop
  endfacet
  facet normal -9.510564e-01 -3.090172e-01  0.000000e+00
    outer loop
      vertex  2.750658e+00  2.469847e+01  7.500000e-01
      vertex  3.400000e+00  2.270000e+01  0.000000e+00
      vertex  3.400000e+00  2.270000e+01  7.500000e-01
    endloop
  endfacet
  facet normal  0.000000e+00  0.000000e+00  1.000000e+00
    outer loop
      vertex -2.500000e+00  2.733013e+01  3.500000e+00
      vertex -4.330127e+00  2.550000e+01  3.500000e+00
      vertex -1.050658e+00  2.593359e+01  3.500000e+00
    endloop
  endfacet
  facet normal  0.000000e+00  -0.000000e+00  1.000000e+00
    outer loop
      vertex -5.000000e+00 -2.300000e+01  3.500000e+00
      vertex -4.330127e+00 -2.550000e+01  3.500000e+00
      vertex -1.600000e+00 -2.460000e+01  3.500000e+00
    endloop
  endfacet
  facet normal  0.000000e+00  -0.000000e+00  9.999999e-01
    outer loop
      vertex -5.000000e+00 -2.300000e+01  3.500000e+00
      vertex -1.600000e+00 -2.460000e+01  3.500000e+00
      vertex -1.131371e+00 -2.346863e+01  3.500000e+00
    endloop
  endfacet
  facet normal  0.000000e+00  -0.000000e+00  1.000000e+00
    outer loop
      vertex -5.000000e+00 -2.300000e+01  3.500000e+00
      vertex -1.131371e+00 -2.346863e+01  3.500000e+00
      vertex  9.797174e-17 -2.300000e+01  3.500000e+00
    endloop
  endfacet
  facet normal  0.000000e+00  -0.000000e+00  1.000000e+00
    outer loop
      vertex -5.000000e+00 -2.300000e+01  3.500000e+00
      vertex  9.797174e-17 -2.300000e+01  3.500000e+00
      vertex  5.417704e-16  4.350000e+00  3.500000e+00
    endloop
  endfacet
  facet normal  0.000000e+00  0.000000e+00  9.999999e-01
    outer loop
      vertex -5.000000e+00 -2.300000e+01  3.500000e+00
      vertex  5.417704e-16  4.350000e+00  3.500000e+00
      vertex -1.679860e+00  5.016585e+00  3.500000e+00
    endloop
  endfacet
  facet normal  0.000000e+00  0.000000e+00  1.000000e+00
    outer loop
      vertex -5.000000e+00 -2.300000e+01  3.500000e+00
      vertex -1.679860e+00  5.016585e+00  3.500000e+00
      vertex -2.445623e+00  6.653616e+00  3.500000e+00
    endloop
  endfacet
  facet normal  0.000000e+00  0.000000e+00  1.000000e+00
    outer loop
      vertex -5.000000e+00 -2.300000e+01  3.500000e+00
      vertex -2.445623e+00  6.653616e+00  3.500000e+00
      vertex -3.393926e+00  2.249685e+01  3.500000e+00
    endloop
  endfacet
  facet normal  0.000000e+00  0.000000e+00  1.000000e+00
    outer loop
      vertex -5.000000e+00 -2.300000e+01  3.500000e+00
      vertex -3.393926e+00  2.249685e+01  3.500000e+00
      vertex -3.400000e+00  2.270000e+01  3.500000e+00
    endloop
  endfacet
  facet normal  0.000000e+00  0.000000e+00  1.000000e+00
    outer loop
      vertex -5.000000e+00 -2.300000e+01  3.500000e+00
      vertex -3.400000e+00  2.270000e+01  3.500000e+00
      vertex -5.000000e+00  2.300000e+01  3.500000e+00
    endloop
  endfacet
  facet normal  0.000000e+00  0.000000e+00  1.000000e+00
    outer loop
      vertex  5.000000e+00 -2.300000e+01  3.500000e+00
      vertex  5.000000e+00  2.300000e+01  3.500000e+00
      vertex  3.400000e+00  2.270000e+01  3.500000e+00
    endloop
  endfacet
  facet normal  0.000000e+00  0.000000e+00  1.000000e+00
    outer loop
      vertex  5.000000e+00 -2.300000e+01  3.500000e+00
      vertex  3.400000e+00  2.270000e+01  3.500000e+00
      vertex  3.393926e+00  2.249685e+01  3.500000e+00
    endloop
  endfacet
  facet normal  0.000000e+00  0.000000e+00  1.000000e+00
    outer loop
      vertex  5.000000e+00 -2.300000e+01  3.500000e+00
      vertex  3.393926e+00  2.249685e+01  3.500000e+00
      vertex  2.445623e+00  6.653616e+00  3.500000e+00
    endloop
  endfacet
  facet normal  0.000000e+00  0.000000e+00  1.000000e+00
    outer loop
      vertex  5.000000e+00 -2.300000e+01  3.500000e+00
      vertex  2.445623e+00  6.653616e+00  3.500000e+00
      vertex  1.679860e+00  5.016585e+00  3.500000e+00
    endloop
  endfacet
  facet normal  0.000000e+00  0.000000e+00  1.000000e+00
    outer loop
      vertex  5.000000e+00 -2.300000e+01  3.500000e+00
      vertex  1.679860e+00  5.016585e+00  3.500000e+00
      vertex  5.417704e-16  4.350000e+00  3.500000e+00
    endloop
  endfacet
  facet normal  0.000000e+00  0.000000e+00  1.000000e+00
    outer loop
      vertex  5.000000e+00 -2.300000e+01  3.500000e+00
      vertex  5.417704e-16  4.350000e+00  3.500000e+00
      vertex  9.797174e-17 -2.300000e+01  3.500000e+00
    endloop
  endfacet
  facet normal  -0.000000e+00  0.000000e+00  1.000000e+00
    outer loop
      vertex  5.000000e+00 -2.300000e+01  3.500000e+00
      vertex  9.797174e-17 -2.300000e+01  3.500000e+00
      vertex  1.131371e+00 -2.346863e+01  3.500000e+00
    endloop
  endfacet
  facet normal  -0.000000e+00  0.000000e+00  9.999999e-01
    outer loop
      vertex  5.000000e+00 -2.300000e+01  3.500000e+00
      vertex  1.131371e+00 -2.346863e+01  3.500000e+00
      vertex  1.600000e+00 -2.460000e+01  3.500000e+00
    endloop
  endfacet
  facet normal  -0.000000e+00  0.000000e+00  1.000000e+00
    outer loop
      vertex  5.000000e+00 -2.300000e+01  3.500000e+00
      vertex  1.600000e+00 -2.460000e+01  3.500000e+00
      vertex  4.330127e+00 -2.550000e+01  3.500000e+00
    endloop
  endfacet
  facet normal  0.000000e+00  0.000000e+00  1.000000e+00
    outer loop
      vertex  2.750658e+00  2.469847e+01  3.500000e+00
      vertex  4.330127e+00  2.550000e+01  3.500000e+00
      vertex  1.050658e+00  2.593359e+01  3.500000e+00
    endloop
  endfacet
  facet normal  -0.000000e+00  0.000000e+00  1.000000e+00
    outer loop
      vertex  1.050658e+00  2.593359e+01  3.500000e+00
      vertex  4.330127e+00  2.550000e+01  3.500000e+00
      vertex  2.500000e+00  2.733013e+01  3.500000e+00
    endloop
  endfacet
  facet normal  0.000000e+00  0.000000e+00  1.000000e+00
    outer loop
      vertex  1.050658e+00  2.593359e+01  3.500000e+00
      vertex  2.500000e+00  2.733013e+01  3.500000e+00
      vertex -1.050658e+00  2.593359e+01  3.500000e+00
    endloop
  endfacet
  facet normal  0.000000e+00  0.000000e+00  1.000000e+00
    outer loop
      vertex -1.050658e+00  2.593359e+01  3.500000e+00
      vertex  2.500000e+00  2.733013e+01  3.500000e+00
      vertex  3.061617e-16  2.800000e+01  3.500000e+00
    endloop
  endfacet
  facet normal  0.000000e+00  0.000000e+00  1.000000e+00
    outer loop
      vertex -1.050658e+00  2.593359e+01  3.500000e+00
      vertex  3.061617e-16  2.800000e+01  3.500000e+00
      vertex -2.500000e+00  2.733013e+01  3.500000e+00
    endloop
  endfacet
  facet normal  0.000000e+00  0.000000e+00  1.000000e+00
    outer loop
      vertex -5.000000e+00  2.300000e+01  3.500000e+00
      vertex -3.400000e+00  2.270000e+01  3.500000e+00
      vertex -4.330127e+00  2.550000e+01  3.500000e+00
    endloop
  endfacet
  facet normal  0.000000e+00  0.000000e+00  1.000000e+00
    outer loop
      vertex -4.330127e+00  2.550000e+01  3.500000e+00
      vertex -3.400000e+00  2.270000e+01  3.500000e+00
      vertex -2.750658e+00  2.469847e+01  3.500000e+00
    endloop
  endfacet
  facet normal  0.000000e+00  -0.000000e+00  1.000000e+00
    outer loop
      vertex -4.330127e+00  2.550000e+01  3.500000e+00
      vertex -2.750658e+00  2.469847e+01  3.500000e+00
      vertex -1.050658e+00  2.593359e+01  3.500000e+00
    endloop
  endfacet
  facet normal  0.000000e+00  0.000000e+00  1.000000e+00
    outer loop
      vertex -2.500000e+00 -2.733013e+01  3.500000e+00
      vertex -2.939152e-16 -2.620000e+01  3.500000e+00
      vertex -4.330127e+00 -2.550000e+01  3.500000e+00
    endloop
  endfacet
  facet normal  0.000000e+00  0.000000e+00  1.000000e+00
    outer loop
      vertex -4.330127e+00 -2.550000e+01  3.500000e+00
      vertex -2.939152e-16 -2.620000e+01  3.500000e+00
      vertex -1.131371e+00 -2.573137e+01  3.500000e+00
    endloop
  endfacet
  facet normal  0.000000e+00  0.000000e+00  1.000000e+00
    outer loop
      vertex -4.330127e+00 -2.550000e+01  3.500000e+00
      vertex -1.131371e+00 -2.573137e+01  3.500000e+00
      vertex -1.600000e+00 -2.460000e+01  3.500000e+00
    endloop
  endfacet
  facet normal  0.000000e+00  0.000000e+00  1.000000e+00
    outer loop
      vertex  3.400000e+00  2.270000e+01  3.500000e+00
      vertex  5.000000e+00  2.300000e+01  3.500000e+00
      vertex  2.750658e+00  2.469847e+01  3.500000e+00
    endloop
  endfacet
  facet normal  -0.000000e+00  0.000000e+00  1.000000e+00
    outer loop
      vertex  2.750658e+00  2.469847e+01  3.500000e+00
      vertex  5.000000e+00  2.300000e+01  3.500000e+00
      vertex  4.330127e+00  2.550000e+01  3.500000e+00
    endloop
  endfacet
  facet normal  0.000000e+00  -0.000000e+00  1.000000e+00
    outer loop
      vertex -2.500000e+00 -2.733013e+01  3.500000e+00
      vertex -9.184850e-16 -2.800000e+01  3.500000e+00
      vertex -2.939152e-16 -2.620000e+01  3.500000e+00
    endloop
  endfacet
  facet normal  0.000000e+00  0.000000e+00  1.000000e+00
    outer loop
      vertex -2.939152e-16 -2.620000e+01  3.500000e+00
      vertex -9.184850e-16 -2.800000e+01  3.500000e+00
      vertex  2.500000e+00 -2.733013e+01  3.500000e+00
    endloop
  endfacet
  facet normal  0.000000e+00  0.000000e+00  1.000000e+00
    outer loop
      vertex -2.939152e-16 -2.620000e+01  3.500000e+00
      vertex  2.500000e+00 -2.733013e+01  3.500000e+00
      vertex  1.131371e+00 -2.573137e+01  3.500000e+00
    endloop
  endfacet
  facet normal  -0.000000e+00  0.000000e+00  1.000000e+00
    outer loop
      vertex  1.131371e+00 -2.573137e+01  3.500000e+00
      vertex  2.500000e+00 -2.733013e+01  3.500000e+00
      vertex  4.330127e+00 -2.550000e+01  3.500000e+00
    endloop
  endfacet
  facet normal  0.000000e+00  0.000000e+00  1.000000e+00
    outer loop
      vertex  1.131371e+00 -2.573137e+01  3.500000e+00
      vertex  4.330127e+00 -2.550000e+01  3.500000e+00
      vertex  1.600000e+00 -2.460000e+01  3.500000e+00
    endloop
  endfacet
  facet normal -3.688330e-01  9.294957e-01  0.000000e+00
    outer loop
      vertex  5.417704e-16  4.350000e+00  7.500000e-01
      vertex  1.679860e+00  5.016585e+00  3.500000e+00
      vertex  1.679860e+00  5.016585e+00  7.500000e-01
    endloop
  endfacet
  facet normal -9.057980e-01  4.237099e-01  0.000000e+00
    outer loop
      vertex  1.679860e+00  5.016585e+00  7.500000e-01
      vertex  1.679860e+00  5.016585e+00  3.500000e+00
      vertex  2.445623e+00  6.653616e+00  3.500000e+00
    endloop
  endfacet
  facet normal -9.057980e-01  4.237099e-01  0.000000e+00
    outer loop
      vertex  1.679860e+00  5.016585e+00  7.500000e-01
      vertex  2.445623e+00  6.653616e+00  3.500000e+00
      vertex  2.445623e+00  6.653616e+00  7.500000e-01
    endloop
  endfacet
  facet normal -3.688330e-01  9.294957e-01  0.000000e+00
    outer loop
      vertex  1.679860e+00  5.016585e+00  3.500000e+00
      vertex  5.417704e-16  4.350000e+00  7.500000e-01
      vertex  5.417704e-16  4.350000e+00  3.500000e+00
    endloop
  endfacet
  facet normal  3.688330e-01  9.294957e-01  0.000000e+00
    outer loop
      vertex  5.417704e-16  4.350000e+00  3.500000e+00
      vertex  5.417704e-16  4.350000e+00  7.500000e-01
      vertex -1.679860e+00  5.016585e+00  7.500000e-01
    endloop
  endfacet
  facet normal  3.688330e-01  9.294957e-01  -0.000000e+00
    outer loop
      vertex  5.417704e-16  4.350000e+00  3.500000e+00
      vertex -1.679860e+00  5.016585e+00  7.500000e-01
      vertex -1.679860e+00  5.016585e+00  3.500000e+00
    endloop
  endfacet
  facet normal  9.057980e-01  4.237099e-01  0.000000e+00
    outer loop
      vertex -1.679860e+00  5.016585e+00  3.500000e+00
      vertex -1.679860e+00  5.016585e+00  7.500000e-01
      vertex -2.445623e+00  6.653616e+00  7.500000e-01
    endloop
  endfacet
  facet normal  9.057980e-01  4.237099e-01  -0.000000e+00
    outer loop
      vertex -1.679860e+00  5.016585e+00  3.500000e+00
      vertex -2.445623e+00  6.653616e+00  7.500000e-01
      vertex -2.445623e+00  6.653616e+00  3.500000e+00
    endloop
  endfacet
  facet normal  0.000000e+00  0.000000e+00 -1.000000e+00
    outer loop
      vertex -1.050658e+00  2.593359e+01  0.000000e+00
      vertex -4.330127e+00  2.550000e+01  0.000000e+00
      vertex -2.500000e+00  2.733013e+01  0.000000e+00
    endloop
  endfacet
  facet normal  0.000000e+00  0.000000e+00 -1.000000e+00
    outer loop
      vertex -5.000000e+00 -2.300000e+01  0.000000e+00
      vertex -5.000000e+00  2.300000e+01  0.000000e+00
      vertex -3.400000e+00  2.270000e+01  0.000000e+00
    endloop
  endfacet
  facet normal  0.000000e+00  -0.000000e+00 -1.000000e+00
    outer loop
      vertex -5.000000e+00 -2.300000e+01  0.000000e+00
      vertex -3.400000e+00  2.270000e+01  0.000000e+00
      vertex -2.750658e+00  2.070153e+01  0.000000e+00
    endloop
  endfacet
  facet normal  0.000000e+00  -0.000000e+00 -1.000000e+00
    outer loop
      vertex -5.000000e+00 -2.300000e+01  0.000000e+00
      vertex -2.750658e+00  2.070153e+01  0.000000e+00
      vertex -1.050658e+00  1.946641e+01  0.000000e+00
    endloop
  endfacet
  facet normal  0.000000e+00  -0.000000e+00 -1.000000e+00
    outer loop
      vertex -5.000000e+00 -2.300000e+01  0.000000e+00
      vertex -1.050658e+00  1.946641e+01  0.000000e+00
      vertex  9.797174e-17 -2.300000e+01  0.000000e+00
    endloop
  endfacet
  facet normal  -0.000000e+00  0.000000e+00 -1.000000e+00
    outer loop
      vertex -5.000000e+00 -2.300000e+01  0.000000e+00
      vertex  9.797174e-17 -2.300000e+01  0.000000e+00
      vertex -1.131371e+00 -2.346863e+01  0.000000e+00
    endloop
  endfacet
  facet normal  -0.000000e+00  0.000000e+00 -9.999999e-01
    outer loop
      vertex -5.000000e+00 -2.300000e+01  0.000000e+00
      vertex -1.131371e+00 -2.346863e+01  0.000000e+00
      vertex -1.600000e+00 -2.460000e+01  0.000000e+00
    endloop
  endfacet
  facet normal  -0.000000e+00  0.000000e+00 -1.000000e+00
    outer loop
      vertex -5.000000e+00 -2.300000e+01  0.000000e+00
      vertex -1.600000e+00 -2.460000e+01  0.000000e+00
      vertex -4.330127e+00 -2.550000e+01  0.000000e+00
    endloop
  endfacet
  facet normal  0.000000e+00  0.000000e+00 -1.000000e+00
    outer loop
      vertex  2.750658e+00  2.070153e+01  0.000000e+00
      vertex  5.000000e+00 -2.300000e+01  0.000000e+00
      vertex  1.050658e+00  1.946641e+01  0.000000e+00
    endloop
  endfacet
  facet normal  0.000000e+00  -0.000000e+00 -1.000000e+00
    outer loop
      vertex  1.050658e+00  1.946641e+01  0.000000e+00
      vertex  5.000000e+00 -2.300000e+01  0.000000e+00
      vertex  9.797174e-17 -2.300000e+01  0.000000e+00
    endloop
  endfacet
  facet normal  0.000000e+00  0.000000e+00 -1.000000e+00
    outer loop
      vertex  1.050658e+00  1.946641e+01  0.000000e+00
      vertex  9.797174e-17 -2.300000e+01  0.000000e+00
      vertex -1.050658e+00  1.946641e+01  0.000000e+00
    endloop
  endfacet
  facet normal  0.000000e+00  0.000000e+00 -1.000000e+00
    outer loop
      vertex -2.500000e+00  2.733013e+01  0.000000e+00
      vertex  3.061617e-16  2.800000e+01  0.000000e+00
      vertex -1.050658e+00  2.593359e+01  0.000000e+00
    endloop
  endfacet
  facet normal  0.000000e+00  0.000000e+00 -1.000000e+00
    outer loop
      vertex -1.050658e+00  2.593359e+01  0.000000e+00
      vertex  3.061617e-16  2.800000e+01  0.000000e+00
      vertex  2.500000e+00  2.733013e+01  0.000000e+00
    endloop
  endfacet
  facet normal  0.000000e+00  0.000000e+00 -1.000000e+00
    outer loop
      vertex -1.050658e+00  2.593359e+01  0.000000e+00
      vertex  2.500000e+00  2.733013e+01  0.000000e+00
      vertex  1.050658e+00  2.593359e+01  0.000000e+00
    endloop
  endfacet
  facet normal  0.000000e+00  0.000000e+00 -1.000000e+00
    outer loop
      vertex  1.050658e+00  2.593359e+01  0.000000e+00
      vertex  2.500000e+00  2.733013e+01  0.000000e+00
      vertex  4.330127e+00  2.550000e+01  0.000000e+00
    endloop
  endfacet
  facet normal  -0.000000e+00  0.000000e+00 -1.000000e+00
    outer loop
      vertex  1.050658e+00  2.593359e+01  0.000000e+00
      vertex  4.330127e+00  2.550000e+01  0.000000e+00
      vertex  2.750658e+00  2.469847e+01  0.000000e+00
    endloop
  endfacet
  facet normal  0.000000e+00  0.000000e+00 -1.000000e+00
    outer loop
      vertex -1.050658e+00  2.593359e+01  0.000000e+00
      vertex -2.750658e+00  2.469847e+01  0.000000e+00
      vertex -4.330127e+00  2.550000e+01  0.000000e+00
    endloop
  endfacet
  facet normal  0.000000e+00  0.000000e+00 -1.000000e+00
    outer loop
      vertex -4.330127e+00  2.550000e+01  0.000000e+00
      vertex -2.750658e+00  2.469847e+01  0.000000e+00
      vertex -3.400000e+00  2.270000e+01  0.000000e+00
    endloop
  endfacet
  facet normal  0.000000e+00  0.000000e+00 -1.000000e+00
    outer loop
      vertex -4.330127e+00  2.550000e+01  0.000000e+00
      vertex -3.400000e+00  2.270000e+01  0.000000e+00
      vertex -5.000000e+00  2.300000e+01  0.000000e+00
    endloop
  endfacet
  facet normal  0.000000e+00  0.000000e+00 -1.000000e+00
    outer loop
      vertex -1.600000e+00 -2.460000e+01  0.000000e+00
      vertex -1.131371e+00 -2.573137e+01  0.000000e+00
      vertex -4.330127e+00 -2.550000e+01  0.000000e+00
    endloop
  endfacet
  facet normal  0.000000e+00  0.000000e+00 -1.000000e+00
    outer loop
      vertex -4.330127e+00 -2.550000e+01  0.000000e+00
      vertex -1.131371e+00 -2.573137e+01  0.000000e+00
      vertex -2.939152e-16 -2.620000e+01  0.000000e+00
    endloop
  endfacet
  facet normal  -0.000000e+00  0.000000e+00 -1.000000e+00
    outer loop
      vertex -4.330127e+00 -2.550000e+01  0.000000e+00
      vertex -2.939152e-16 -2.620000e+01  0.000000e+00
      vertex -2.500000e+00 -2.733013e+01  0.000000e+00
    endloop
  endfacet
  facet normal  0.000000e+00  0.000000e+00 -1.000000e+00
    outer loop
      vertex  4.330127e+00  2.550000e+01  0.000000e+00
      vertex  5.000000e+00  2.300000e+01  0.000000e+00
      vertex  2.750658e+00  2.469847e+01  0.000000e+00
    endloop
  endfacet
  facet normal  0.000000e+00  0.000000e+00 -1.000000e+00
    outer loop
      vertex  2.750658e+00  2.469847e+01  0.000000e+00
      vertex  5.000000e+00  2.300000e+01  0.000000e+00
      vertex  3.400000e+00  2.270000e+01  0.000000e+00
    endloop
  endfacet
  facet normal  0.000000e+00  0.000000e+00 -1.000000e+00
    outer loop
      vertex  5.000000e+00  2.300000e+01  0.000000e+00
      vertex  5.000000e+00 -2.300000e+01  0.000000e+00
      vertex  3.400000e+00  2.270000e+01  0.000000e+00
    endloop
  endfacet
  facet normal  0.000000e+00  -0.000000e+00 -1.000000e+00
    outer loop
      vertex  3.400000e+00  2.270000e+01  0.000000e+00
      vertex  5.000000e+00 -2.300000e+01  0.000000e+00
      vertex  2.750658e+00  2.070153e+01  0.000000e+00
    endloop
  endfacet
  facet normal  -0.000000e+00  0.000000e+00 -1.000000e+00
    outer loop
      vertex  9.797174e-17 -2.300000e+01  0.000000e+00
      vertex  5.000000e+00 -2.300000e+01  0.000000e+00
      vertex  1.131371e+00 -2.346863e+01  0.000000e+00
    endloop
  endfacet
  facet normal  0.000000e+00  0.000000e+00 -1.000000e+00
    outer loop
      vertex  1.131371e+00 -2.346863e+01  0.000000e+00
      vertex  5.000000e+00 -2.300000e+01  0.000000e+00
      vertex  4.330127e+00 -2.550000e+01  0.000000e+00
    endloop
  endfacet
  facet normal  0.000000e+00  0.000000e+00 -1.000000e+00
    outer loop
      vertex  1.131371e+00 -2.346863e+01  0.000000e+00
      vertex  4.330127e+00 -2.550000e+01  0.000000e+00
      vertex  1.600000e+00 -2.460000e+01  0.000000e+00
    endloop
  endfacet
  facet normal  -0.000000e+00  0.000000e+00 -1.000000e+00
    outer loop
      vertex  1.600000e+00 -2.460000e+01  0.000000e+00
      vertex  4.330127e+00 -2.550000e+01  0.000000e+00
      vertex  1.131371e+00 -2.573137e+01  0.000000e+00
    endloop
  endfacet
  facet normal  0.000000e+00  0.000000e+00 -1.000000e+00
    outer loop
      vertex  1.131371e+00 -2.573137e+01  0.000000e+00
      vertex  4.330127e+00 -2.550000e+01  0.000000e+00
      vertex  2.500000e+00 -2.733013e+01  0.000000e+00
    endloop
  endfacet
  facet normal  0.000000e+00  0.000000e+00 -1.000000e+00
    outer loop
      vertex  1.131371e+00 -2.573137e+01  0.000000e+00
      vertex  2.500000e+00 -2.733013e+01  0.000000e+00
      vertex -2.939152e-16 -2.620000e+01  0.000000e+00
    endloop
  endfacet
  facet normal  0.000000e+00  -0.000000e+00 -1.000000e+00
    outer loop
      vertex -2.939152e-16 -2.620000e+01  0.000000e+00
      vertex  2.500000e+00 -2.733013e+01  0.000000e+00
      vertex -9.184850e-16 -2.800000e+01  0.000000e+00
    endloop
  endfacet
  facet normal  0.000000e+00  0.000000e+00 -1.000000e+00
    outer loop
      vertex -2.939152e-16 -2.620000e+01  0.000000e+00
      vertex -9.184850e-16 -2.800000e+01  0.000000e+00
      vertex -2.500000e+00 -2.733013e+01  0.000000e+00
    endloop
  endfacet
  facet normal  3.826839e-01 -9.238793e-01  0.000000e+00
    outer loop
      vertex  9.797174e-17 -2.300000e+01  0.000000e+00
      vertex -1.131371e+00 -2.346863e+01  3.500000e+00
      vertex -1.131371e+00 -2.346863e+01  0.000000e+00
    endloop
  endfacet
  facet normal  9.238794e-01 -3.826835e-01  0.000000e+00
    outer loop
      vertex -1.131371e+00 -2.346863e+01  0.000000e+00
      vertex -1.131371e+00 -2.346863e+01  3.500000e+00
      vertex -1.600000e+00 -2.460000e+01  3.500000e+00
    endloop
  endfacet
  facet normal  9.238794e-01 -3.826835e-01  0.000000e+00
    outer loop
      vertex -1.131371e+00 -2.346863e+01  0.000000e+00
      vertex -1.600000e+00 -2.460000e+01  3.500000e+00
      vertex -1.600000e+00 -2.460000e+01  0.000000e+00
    endloop
  endfacet
  facet normal  3.826839e-01 -9.238793e-01  0.000000e+00
    outer loop
      vertex -1.131371e+00 -2.346863e+01  3.500000e+00
      vertex  9.797174e-17 -2.300000e+01  0.000000e+00
      vertex  9.797174e-17 -2.300000e+01  3.500000e+00
    endloop
  endfacet
  facet normal -3.826839e-01 -9.238793e-01  -0.000000e+00
    outer loop
      vertex  9.797174e-17 -2.300000e+01  3.500000e+00
      vertex  9.797174e-17 -2.300000e+01  0.000000e+00
      vertex  1.131371e+00 -2.346863e+01  0.000000e+00
    endloop
  endfacet
  facet normal -3.826839e-01 -9.238793e-01  0.000000e+00
    outer loop
      vertex  9.797174e-17 -2.300000e+01  3.500000e+00
      vertex  1.131371e+00 -2.346863e+01  0.000000e+00
      vertex  1.131371e+00 -2.346863e+01  3.500000e+00
    endloop
  endfacet
  facet normal -9.238794e-01 -3.826835e-01  -0.000000e+00
    outer loop
      vertex  1.131371e+00 -2.346863e+01  3.500000e+00
      vertex  1.131371e+00 -2.346863e+01  0.000000e+00
      vertex  1.600000e+00 -2.460000e+01  0.000000e+00
    endloop
  endfacet
  facet normal -9.238794e-01 -3.826835e-01  0.000000e+00
    outer loop
      vertex  1.131371e+00 -2.346863e+01  3.500000e+00
      vertex  1.600000e+00 -2.460000e+01  0.000000e+00
      vertex  1.600000e+00 -2.460000e+01  3.500000e+00
    endloop
  endfacet
  facet normal -3.826839e-01  9.238793e-01  0.000000e+00
    outer loop
      vertex -2.939152e-16 -2.620000e+01  0.000000e+00
      vertex  1.131371e+00 -2.573137e+01  3.500000e+00
      vertex  1.131371e+00 -2.573137e+01  0.000000e+00
    endloop
  endfacet
  facet normal -9.238794e-01  3.826835e-01  0.000000e+00
    outer loop
      vertex  1.131371e+00 -2.573137e+01  0.000000e+00
      vertex  1.131371e+00 -2.573137e+01  3.500000e+00
      vertex  1.600000e+00 -2.460000e+01  3.500000e+00
    endloop
  endfacet
  facet normal -9.238794e-01  3.826835e-01  0.000000e+00
    outer loop
      vertex  1.131371e+00 -2.573137e+01  0.000000e+00
      vertex  1.600000e+00 -2.460000e+01  3.500000e+00
      vertex  1.600000e+00 -2.460000e+01  0.000000e+00
    endloop
  endfacet
  facet normal -3.826839e-01  9.238793e-01  0.000000e+00
    outer loop
      vertex  1.131371e+00 -2.573137e+01  3.500000e+00
      vertex -2.939152e-16 -2.620000e+01  0.000000e+00
      vertex -2.939152e-16 -2.620000e+01  3.500000e+00
    endloop
  endfacet
  facet normal  3.826839e-01  9.238793e-01  0.000000e+00
    outer loop
      vertex -2.939152e-16 -2.620000e+01  3.500000e+00
      vertex -2.939152e-16 -2.620000e+01  0.000000e+00
      vertex -1.131371e+00 -2.573137e+01  0.000000e+00
    endloop
  endfacet
  facet normal  3.826839e-01  9.238793e-01  -0.000000e+00
    outer loop
      vertex -2.939152e-16 -2.620000e+01  3.500000e+00
      vertex -1.131371e+00 -2.573137e+01  0.000000e+00
      vertex -1.131371e+00 -2.573137e+01  3.500000e+00
    endloop
  endfacet
  facet normal  9.238794e-01  3.826835e-01  0.000000e+00
    outer loop
      vertex -1.131371e+00 -2.573137e+01  3.500000e+00
      vertex -1.131371e+00 -2.573137e+01  0.000000e+00
      vertex -1.600000e+00 -2.460000e+01  0.000000e+00
    endloop
  endfacet
  facet normal  9.238794e-01  3.826835e-01  -0.000000e+00
    outer loop
      vertex -1.131371e+00 -2.573137e+01  3.500000e+00
      vertex -1.600000e+00 -2.460000e+01  0.000000e+00
      vertex -1.600000e+00 -2.460000e+01  3.500000e+00
    endloop
  endfacet
  facet normal  1.000000e+00  -0.000000e+00  0.000000e+00
    outer loop
      vertex  5.000000e+00  2.300000e+01  3.500000e+00
      vertex  5.000000e+00 -2.300000e+01  3.500000e+00
      vertex  5.000000e+00  2.300000e+01  0.000000e+00
    endloop
  endfacet
  facet normal  1.000000e+00  0.000000e+00  0.000000e+00
    outer loop
      vertex  5.000000e+00  2.300000e+01  0.000000e+00
      vertex  5.000000e+00 -2.300000e+01  3.500000e+00
      vertex  5.000000e+00 -2.300000e+01  0.000000e+00
    endloop
  endfacet
  facet normal  9.659259e-01 -2.588190e-01  0.000000e+00
    outer loop
      vertex  5.000000e+00 -2.300000e+01  0.000000e+00
      vertex  5.000000e+00 -2.300000e+01  3.500000e+00
      vertex  4.330127e+00 -2.550000e+01  0.000000e+00
    endloop
  endfacet
  facet normal  9.659259e-01 -2.588190e-01  0.000000e+00
    outer loop
      vertex  4.330127e+00 -2.550000e+01  0.000000e+00
      vertex  5.000000e+00 -2.300000e+01  3.500000e+00
      vertex  4.330127e+00 -2.550000e+01  3.500000e+00
    endloop
  endfacet
  facet normal  7.071068e-01 -7.071066e-01  0.000000e+00
    outer loop
      vertex  4.330127e+00 -2.550000e+01  0.000000e+00
      vertex  4.330127e+00 -2.550000e+01  3.500000e+00
      vertex  2.500000e+00 -2.733013e+01  0.000000e+00
    endloop
  endfacet
  facet normal  7.071068e-01 -7.071066e-01  0.000000e+00
    outer loop
      vertex  2.500000e+00 -2.733013e+01  0.000000e+00
      vertex  4.330127e+00 -2.550000e+01  3.500000e+00
      vertex  2.500000e+00 -2.733013e+01  3.500000e+00
    endloop
  endfacet
  facet normal  2.588188e-01 -9.659259e-01  0.000000e+00
    outer loop
      vertex  2.500000e+00 -2.733013e+01  0.000000e+00
      vertex  2.500000e+00 -2.733013e+01  3.500000e+00
      vertex -9.184850e-16 -2.800000e+01  0.000000e+00
    endloop
  endfacet
  facet normal  2.588188e-01 -9.659259e-01  0.000000e+00
    outer loop
      vertex -9.184850e-16 -2.800000e+01  0.000000e+00
      vertex  2.500000e+00 -2.733013e+01  3.500000e+00
      vertex -9.184850e-16 -2.800000e+01  3.500000e+00
    endloop
  endfacet
  facet normal -2.588188e-01 -9.659259e-01  -0.000000e+00
    outer loop
      vertex -9.184850e-16 -2.800000e+01  0.000000e+00
      vertex -9.184850e-16 -2.800000e+01  3.500000e+00
      vertex -2.500000e+00 -2.733013e+01  0.000000e+00
    endloop
  endfacet
  facet normal -2.588188e-01 -9.659259e-01  0.000000e+00
    outer loop
      vertex -2.500000e+00 -2.733013e+01  0.000000e+00
      vertex -9.184850e-16 -2.800000e+01  3.500000e+00
      vertex -2.500000e+00 -2.733013e+01  3.500000e+00
    endloop
  endfacet
  facet normal -7.071068e-01 -7.071066e-01  -0.000000e+00
    outer loop
      vertex -2.500000e+00 -2.733013e+01  0.000000e+00
      vertex -2.500000e+00 -2.733013e+01  3.500000e+00
      vertex -4.330127e+00 -2.550000e+01  0.000000e+00
    endloop
  endfacet
  facet normal -7.071068e-01 -7.071066e-01  0.000000e+00
    outer loop
      vertex -4.330127e+00 -2.550000e+01  0.000000e+00
      vertex -2.500000e+00 -2.733013e+01  3.500000e+00
      vertex -4.330127e+00 -2.550000e+01  3.500000e+00
    endloop
  endfacet
  facet normal -9.659259e-01 -2.588190e-01  -0.000000e+00
    outer loop
      vertex -4.330127e+00 -2.550000e+01  0.000000e+00
      vertex -4.330127e+00 -2.550000e+01  3.500000e+00
      vertex -5.000000e+00 -2.300000e+01  0.000000e+00
    endloop
  endfacet
  facet normal -9.659259e-01 -2.588190e-01  0.000000e+00
    outer loop
      vertex -5.000000e+00 -2.300000e+01  0.000000e+00
      vertex -4.330127e+00 -2.550000e+01  3.500000e+00
      vertex -5.000000e+00 -2.300000e+01  3.500000e+00
    endloop
  endfacet
  facet normal -1.000000e+00  -0.000000e+00  0.000000e+00
    outer loop
      vertex -5.000000e+00 -2.300000e+01  3.500000e+00
      vertex -5.000000e+00  2.300000e+01  3.500000e+00
      vertex -5.000000e+00 -2.300000e+01  0.000000e+00
    endloop
  endfacet
  facet normal -1.000000e+00  0.000000e+00  0.000000e+00
    outer loop
      vertex -5.000000e+00 -2.300000e+01  0.000000e+00
      vertex -5.000000e+00  2.300000e+01  3.500000e+00
      vertex -5.000000e+00  2.300000e+01  0.000000e+00
    endloop
  endfacet
  facet normal -9.659259e-01  2.588190e-01  0.000000e+00
    outer loop
      vertex -5.000000e+00  2.300000e+01  0.000000e+00
      vertex -5.000000e+00  2.300000e+01  3.500000e+00
      vertex -4.330127e+00  2.550000e+01  0.000000e+00
    endloop
  endfacet
  facet normal -9.659259e-01  2.588190e-01  0.000000e+00
    outer loop
      vertex -4.330127e+00  2.550000e+01  0.000000e+00
      vertex -5.000000e+00  2.300000e+01  3.500000e+00
      vertex -4.330127e+00  2.550000e+01  3.500000e+00
    endloop
  endfacet
  facet normal -7.071068e-01  7.071066e-01  0.000000e+00
    outer loop
      vertex -4.330127e+00  2.550000e+01  0.000000e+00
      vertex -4.330127e+00  2.550000e+01  3.500000e+00
      vertex -2.500000e+00  2.733013e+01  0.000000e+00
    endloop
  endfacet
  facet normal -7.071068e-01  7.071066e-01  0.000000e+00
    outer loop
      vertex -2.500000e+00  2.733013e+01  0.000000e+00
      vertex -4.330127e+00  2.550000e+01  3.500000e+00
      vertex -2.500000e+00  2.733013e+01  3.500000e+00
    endloop
  endfacet
  facet normal -2.588188e-01  9.659259e-01  0.000000e+00
    outer loop
      vertex -2.500000e+00  2.733013e+01  0.000000e+00
      vertex -2.500000e+00  2.733013e+01  3.500000e+00
      vertex  3.061617e-16  2.800000e+01  0.000000e+00
    endloop
  endfacet
  facet normal -2.588188e-01  9.659259e-01  0.000000e+00
    outer loop
      vertex  3.061617e-16  2.800000e+01  0.000000e+00
      vertex -2.500000e+00  2.733013e+01  3.500000e+00
      vertex  3.061617e-16  2.800000e+01  3.500000e+00
    endloop
  endfacet
  facet normal  2.588188e-01  9.659259e-01  0.000000e+00
    outer loop
      vertex  3.061617e-16  2.800000e+01  0.000000e+00
      vertex  3.061617e-16  2.800000e+01  3.500000e+00
      vertex  2.500000e+00  2.733013e+01  0.000000e+00
    endloop
  endfacet
  facet normal  2.588188e-01  9.659259e-01  -0.000000e+00
    outer loop
      vertex  2.500000e+00  2.733013e+01  0.000000e+00
      vertex  3.061617e-16  2.800000e+01  3.500000e+00
      vertex  2.500000e+00  2.733013e+01  3.500000e+00
    endloop
  endfacet
  facet normal  7.071068e-01  7.071066e-01  0.000000e+00
    outer loop
      vertex  2.500000e+00  2.733013e+01  0.000000e+00
      vertex  2.500000e+00  2.733013e+01  3.500000e+00
      vertex  4.330127e+00  2.550000e+01  0.000000e+00
    endloop
  endfacet
  facet normal  7.071068e-01  7.071066e-01  -0.000000e+00
    outer loop
      vertex  4.330127e+00  2.550000e+01  0.000000e+00
      vertex  2.500000e+00  2.733013e+01  3.500000e+00
      vertex  4.330127e+00  2.550000e+01  3.500000e+00
    endloop
  endfacet
  facet normal  9.659259e-01  2.588190e-01  0.000000e+00
    outer loop
      vertex  4.330127e+00  2.550000e+01  0.000000e+00
      vertex  4.330127e+00  2.550000e+01  3.500000e+00
      vertex  5.000000e+00  2.300000e+01  0.000000e+00
    endloop
  endfacet
  facet normal  9.659259e-01  2.588190e-01  -0.000000e+00
    outer loop
      vertex  5.000000e+00  2.300000e+01  0.000000e+00
      vertex  4.330127e+00  2.550000e+01  3.500000e+00
      vertex  5.000000e+00  2.300000e+01  3.500000e+00
    endloop
  endfacet
endsolid CATIA STL
